<svg id="Layer_1" data-name="Layer 1" xmlns="http://www.w3.org/2000/svg" xmlns:xlink="http://www.w3.org/1999/xlink" viewBox="0 0 512 512"><defs><linearGradient id="New_Gradient_Swatch_1" x1="256" x2="256" y2="512" gradientUnits="userSpaceOnUse"><stop offset="0" stop-color="#ededee"/><stop offset="0.76" stop-color="#cfd0d2"/><stop offset="1" stop-color="#a6a8ab"/></linearGradient><linearGradient id="New_Gradient_Swatch_2" x1="256" y1="402.19" x2="256" y2="109.81" gradientUnits="userSpaceOnUse"><stop offset="0" stop-color="#231f20"/><stop offset="1" stop-color="#6d6e70"/></linearGradient></defs><title>full_page</title><path d="M256,512c141,0,256-115,256-256S397,0,256,0,0,115,0,256,115,512,256,512Z" fill-rule="evenodd" fill="url(#New_Gradient_Swatch_1)"/><path d="M164.44,109.81H279.71v44.41A36.25,36.25,0,0,0,316,190.32h44.62V373a29.3,29.3,0,0,1-29.28,29.15H164.44A29.3,29.3,0,0,1,135.16,373V139a29.31,29.31,0,0,1,29.28-29.15Zm-4.18,249.69v9H334.73v-9Zm0-25.92v9H328v-9Zm0-25.92v9H332.48v-9Zm0-25.92v9H302.09v-9Zm0-25.92v9H334.73v-9Zm0-25.92v9h161v-9Zm0-25.92v9H334.73v-9Zm0-25.92v9H266.07v-9Zm0-25.92v9h95.67v-9Zm200.31,31.22-73.89-73.55v44.41A29.29,29.29,0,0,0,316,183.36Z" fill="#fff" fill-rule="evenodd"/><path d="M172.58,109.81H287.85v44.41a36.24,36.24,0,0,0,36.23,36.09h44.62V373a29.3,29.3,0,0,1-29.28,29.15H172.58A29.3,29.3,0,0,1,143.29,373V139a29.31,29.31,0,0,1,29.28-29.15ZM168.4,359.51v9H342.86v-9Zm0-25.92v9H336.11v-9Zm0-25.92v9H340.61v-9Zm0-25.92v9H310.23v-9Zm0-25.92v9H342.86v-9Zm0-25.92v9h161v-9Zm0-25.92v9H342.86v-9Zm0-25.92v9H274.2v-9Zm0-25.92v9h95.67v-9Zm200.31,31.22-73.89-73.55v44.41a29.29,29.29,0,0,0,29.27,29.13Z" fill-rule="evenodd" fill="url(#New_Gradient_Swatch_2)"/></svg>